<svg xmlns="http://www.w3.org/2000/svg" viewBox="0 0 28 16"><defs><style>.a{fill:#40bef8;}</style></defs><path class="a" d="M1269.981,206.347a1.4,1.4,0,0,0-1.434-1.347h0l-25.112.032a1.472,1.472,0,0,0-1.014.4,1.3,1.3,0,0,0-.419.954l.019,13.27a1.3,1.3,0,0,0,.422.953,1.472,1.472,0,0,0,1.013.394h0l25.112-.033a1.4,1.4,0,0,0,1.432-1.351Zm-3.01,0L1256,213.522l-10.991-7.143Zm-6.331,8.525,6.506,4.745-22.311.029,6.546-4.774a.648.648,0,0,0,.127-.946.748.748,0,0,0-1.006-.12l-7.05,5.141L1243.436,207l12.16,7.9a.755.755,0,0,0,.817,0l12.136-7.934.018,11.986-7.047-5.139a.748.748,0,0,0-1.006.12A.648.648,0,0,0,1260.641,214.876Z" transform="translate(-1242 -205)"/></svg>