<svg xmlns="http://www.w3.org/2000/svg" viewBox="0 0 41.001 56"><defs><style>.a{fill:#40bef8;}</style></defs><path class="a" d="M349.754,773a.876.876,0,0,1,0-1.75h5.493a.876.876,0,0,1,0,1.75Zm-1.1-3.471a.875.875,0,0,1,0-1.75h7.689a.875.875,0,0,1,0,1.75Zm-1.1-3.472a.876.876,0,0,1,0-1.751h9.887a.876.876,0,0,1,0,1.751Zm9.936-3.794h-9.934a.865.865,0,0,1-.852-.875c0-2.917-.792-3.808-2.549-5.79l0,0,0,0a52.346,52.346,0,0,1-3.874-4.812,15.714,15.714,0,0,1-2.166-4.352,16,16,0,0,1,.4-10.779l.016-.034a15.627,15.627,0,0,1,3.269-5.02,15.15,15.15,0,0,1,4.913-3.377v0a14.739,14.739,0,0,1,11.57,0A15.184,15.184,0,0,1,363.2,730.6a15.752,15.752,0,0,1,4.432,11.008,16,16,0,0,1-.743,4.828,15.68,15.68,0,0,1-2.167,4.35,54.99,54.99,0,0,1-3.811,4.759c-1.77,2.014-2.546,2.9-2.546,5.843a.864.864,0,0,1-.85.875Zm-10.13-33.427a13.408,13.408,0,0,0-4.357,3,13.91,13.91,0,0,0-2.9,4.441l-.017.048a14.118,14.118,0,0,0,1.562,13.427,51.355,51.355,0,0,0,3.759,4.668l0,0c1.893,2.128,2.833,3.192,2.981,6.09h8.294c.146-2.919,1.069-3.972,2.97-6.134a52.868,52.868,0,0,0,3.7-4.622,13.909,13.909,0,0,0,1.919-3.857,14.128,14.128,0,0,0,.661-4.291,13.984,13.984,0,0,0-3.934-9.77,13.412,13.412,0,0,0-4.358-3,13.146,13.146,0,0,0-10.273,0v0Zm5.938,28.6a49.207,49.207,0,0,1,.627-9.326,25.423,25.423,0,0,1,1.973-5.99,2.411,2.411,0,0,1-2.89-.273l-.512-.43-.51.428a2.413,2.413,0,0,1-2.89.273,25.416,25.416,0,0,1,1.973,5.992,49.2,49.2,0,0,1,.627,9.326.847.847,0,1,1-1.694,0,47.533,47.533,0,0,0-.6-8.985,26.275,26.275,0,0,0-2.918-7.733.9.9,0,0,1-.069-.693.846.846,0,0,1,1.067-.565,10.946,10.946,0,0,1,1.577.706l.046.025c.739.383,1.354.682,1.811.3l1.045-.878a.832.832,0,0,1,1.107.034l1.007.845c.457.383,1.07.082,1.811-.3l.046-.026a10.772,10.772,0,0,1,1.579-.707.843.843,0,0,1,1.066.565.893.893,0,0,1-.1.748,26.212,26.212,0,0,0-2.887,7.677,47.541,47.541,0,0,0-.6,8.985.847.847,0,1,1-1.694,0Zm-11.2-11.688a11.691,11.691,0,0,1-.662-2.211,12.043,12.043,0,0,1-.227-2.306.85.85,0,1,1,1.7,0,10.209,10.209,0,0,0,.188,1.966,10.034,10.034,0,0,0,.562,1.876.881.881,0,0,1-.452,1.141.825.825,0,0,1-.327.068A.848.848,0,0,1,342.1,745.744Zm.452-7.895a.882.882,0,0,1-.452-1.141,11.806,11.806,0,0,1,1.033-1.964l0,0,0,0a11.63,11.63,0,0,1,1.382-1.726,11.406,11.406,0,0,1,1.679-1.42v0a11.176,11.176,0,0,1,1.912-1.062,10.792,10.792,0,0,1,2.147-.682,11.039,11.039,0,0,1,2.244-.233.875.875,0,0,1,0,1.75,9.51,9.51,0,0,0-1.913.192,9.213,9.213,0,0,0-1.821.58,9.485,9.485,0,0,0-1.62.906h0a9.532,9.532,0,0,0-1.422,1.211,9.784,9.784,0,0,0-1.176,1.467l0,0a9.927,9.927,0,0,0-.881,1.666.846.846,0,0,1-.781.533A.825.825,0,0,1,342.556,737.849Zm26.009-6.169a.889.889,0,0,1,.311-1.191l2.855-1.7a.837.837,0,0,1,1.156.321.887.887,0,0,1-.311,1.19l-2.855,1.7a.826.826,0,0,1-.42.115A.844.844,0,0,1,368.565,731.68ZM335.28,732l-2.855-1.7a.885.885,0,0,1-.313-1.188.835.835,0,0,1,1.157-.321l2.855,1.694a.888.888,0,0,1,.311,1.191.842.842,0,0,1-.735.436A.823.823,0,0,1,335.28,732Zm26.5-7.306a.888.888,0,0,1-.311-1.191l1.648-2.937a.837.837,0,0,1,1.156-.32.887.887,0,0,1,.312,1.191l-1.648,2.937a.844.844,0,0,1-.736.436A.828.828,0,0,1,361.777,724.694Zm-19.71-.32-1.648-2.938a.885.885,0,0,1,.311-1.188.838.838,0,0,1,1.157.32l1.646,2.937a.886.886,0,0,1-.312,1.189.823.823,0,0,1-.42.115A.842.842,0,0,1,342.068,724.374Zm9.583-3.109v-3.39a.851.851,0,1,1,1.7,0v3.39a.851.851,0,1,1-1.7,0Z" transform="translate(-332 -717)"/></svg>