<svg xmlns="http://www.w3.org/2000/svg" viewBox="0 0 25.84 18.09"><defs><style>.a{fill:#fff;}</style></defs><path class="a" d="M330.64,222.28a.64.64,0,0,1-.64-.64v-.381a.64.64,0,0,1,.64-.64H355.2a.641.641,0,0,1,.64.64v.381a.641.641,0,0,1-.64.64Zm0-8.21a.64.64,0,0,1-.64-.641v-.38a.64.64,0,0,1,.64-.64H342.7a.64.64,0,0,1,.64.64v.38a.64.64,0,0,1-.64.641Zm0-8.221a.64.64,0,0,1-.64-.64v-.38a.64.64,0,0,1,.64-.64H355.2a.64.64,0,0,1,.64.64v.38a.64.64,0,0,1-.64.64Z" transform="translate(-330 -204.19)"/></svg>